<?xml version="1.0" standalone="no"?>
<!DOCTYPE svg PUBLIC "-//W3C//DTD SVG 20010904//EN"
 "http://www.w3.org/TR/2001/REC-SVG-20010904/DTD/svg10.dtd">
<svg version="1.0" xmlns="http://www.w3.org/2000/svg"
 width="300.000000pt" height="300.000000pt" viewBox="0 0 300.000000 300.000000"
 preserveAspectRatio="xMidYMid meet">
<metadata>
Created by potrace 1.11, written by Peter Selinger 2001-2013
</metadata>
<g transform="translate(0.000000,300.000000) scale(0.100000,-0.100000)"
fill="#000000" stroke="none">
<path d="M76 2489 c-11 -10 -14 -19 -8 -19 7 0 11 -3 11 -7 -1 -5 -1 -10 1
-13 1 -3 3 -16 6 -29 2 -14 10 -31 17 -40 9 -12 9 -13 0 -7 -7 4 -13 3 -13 -2
0 -5 -7 -9 -16 -9 -14 0 -14 2 2 14 10 7 12 13 5 13 -7 0 -10 4 -6 9 3 5 1 12
-4 16 -6 3 -8 -4 -6 -16 3 -15 0 -19 -11 -15 -12 4 -12 2 -4 -14 6 -11 6 -21
1 -25 -5 -3 -11 3 -13 12 -3 15 -5 14 -10 -4 -5 -17 -2 -21 13 -18 11 2 24 7
30 10 6 4 19 -2 30 -14 11 -12 15 -21 9 -21 -6 0 -13 7 -16 15 -4 8 -10 15
-15 15 -5 0 -4 -11 3 -25 6 -13 16 -21 22 -18 6 4 5 0 -2 -9 -11 -14 -10 -18
6 -30 10 -7 21 -20 24 -29 7 -19 -8 -47 -19 -36 -4 5 -1 13 7 18 12 9 12 10
-2 5 -10 -3 -22 2 -27 12 -6 9 -11 13 -11 9 0 -14 31 -55 47 -61 8 -4 22 -1
29 5 10 8 14 8 14 0 0 -6 -5 -11 -11 -11 -5 0 -7 -5 -3 -12 5 -7 2 -9 -7 -4
-8 4 -5 0 5 -8 11 -9 23 -16 27 -16 4 0 7 -10 7 -22 0 -13 2 -31 4 -42 5 -21
37 -48 48 -41 5 3 11 -2 14 -11 9 -24 7 -28 -9 -14 -8 7 -15 9 -15 6 0 -4 7
-14 15 -22 8 -9 15 -12 15 -7 0 4 12 9 28 10 l27 1 -28 -14 c-25 -13 -38 -27
-19 -22 4 2 21 -9 37 -25 17 -15 36 -25 45 -22 8 4 11 3 8 -1 -4 -3 -1 -13 7
-21 11 -11 20 -12 37 -3 22 11 21 10 -2 -8 -22 -19 -25 -19 -36 -4 -12 15 -13
15 -11 -5 1 -21 18 -24 50 -8 6 4 1 -3 -12 -14 -28 -25 -15 -28 19 -4 19 13
22 13 13 2 -13 -16 -14 -61 -1 -53 11 7 10 -10 -2 -22 -6 -6 -5 -15 1 -24 9
-13 10 -12 5 2 -3 10 -1 20 3 23 11 6 25 -24 22 -45 -2 -13 -1 -13 8 0 5 8 8
17 5 21 -2 4 1 11 7 15 7 4 9 3 6 -3 -4 -6 0 -14 9 -17 8 -3 13 -10 10 -15 -3
-5 1 -14 9 -21 8 -7 15 -20 14 -29 0 -13 -2 -14 -6 -1 -7 17 -23 30 -38 30 -5
-1 -2 -5 8 -11 14 -8 15 -14 7 -24 -8 -10 -7 -13 7 -11 11 0 18 -5 17 -15 -1
-11 5 -15 17 -12 11 3 19 10 19 15 0 5 -4 7 -9 3 -14 -8 -20 7 -10 30 7 18 8
18 8 2 1 -12 6 -16 14 -11 6 4 9 4 5 -1 -4 -4 -1 -20 7 -36 11 -20 12 -30 3
-35 -7 -4 -8 -3 -4 4 4 7 2 12 -4 12 -6 0 -8 4 -5 10 3 6 -1 7 -10 3 -13 -5
-14 -7 -3 -14 10 -6 9 -12 -7 -24 -20 -16 -20 -16 2 -6 20 10 21 8 19 -22 -2
-37 -13 -60 -27 -52 -5 4 -17 1 -26 -5 -16 -10 -15 -10 4 -5 17 5 22 2 20 -14
0 -11 -5 -17 -9 -15 -4 3 -8 1 -8 -5 0 -5 6 -12 13 -14 7 -4 6 -6 -5 -6 -9 -1
-19 5 -21 12 -4 9 -6 9 -6 -1 -1 -8 -6 -10 -13 -6 -8 4 -10 3 -5 -2 5 -5 14
-9 20 -9 7 0 11 -11 11 -25 -2 -38 -3 -40 -15 -40 -6 0 -7 5 -2 13 13 21 12
36 -2 30 -8 -2 -11 -12 -8 -20 5 -12 3 -14 -8 -8 -9 6 -8 2 3 -11 21 -24 21
-28 3 -64 -8 -16 -15 -32 -15 -35 0 -3 0 -7 0 -10 0 -3 -8 -1 -19 4 -15 9 -18
7 -16 -12 2 -12 5 -29 6 -37 3 -11 -3 -14 -21 -12 -17 2 -21 0 -12 -6 15 -10
5 -45 -10 -36 -6 4 -5 10 3 16 11 8 11 9 -1 5 -8 -2 -15 -12 -15 -22 0 -21
-62 -68 -76 -59 -5 3 -8 1 -7 -4 2 -6 -1 -10 -5 -10 -5 -1 -18 -11 -29 -24
-11 -13 -24 -22 -28 -21 -4 1 -14 -11 -20 -28 -8 -19 -16 -26 -20 -19 -5 8 -9
7 -13 -5 -4 -9 -3 -14 1 -11 4 2 14 1 22 -5 12 -7 12 -9 -3 -9 -13 0 -16 -6
-13 -25 3 -17 1 -23 -6 -19 -7 5 -9 0 -6 -14 4 -13 2 -20 -6 -19 -6 1 -10 -6
-10 -15 1 -10 -2 -16 -6 -13 -4 3 -13 -2 -20 -10 -7 -8 -17 -12 -22 -9 -6 4
-2 -6 8 -22 16 -24 16 -27 2 -16 -14 11 -16 11 -11 -7 3 -12 10 -18 16 -14 6
3 7 1 3 -6 -4 -6 -17 -9 -30 -7 -15 3 -23 -1 -23 -10 0 -8 4 -14 9 -14 4 0 8
5 8 12 0 16 13 1 16 -18 2 -10 -3 -14 -12 -10 -8 3 -13 2 -10 -3 3 -5 -1 -12
-10 -15 -13 -5 -14 -9 -5 -20 10 -11 8 -16 -5 -24 -16 -9 -15 -10 4 -16 12 -4
23 -12 23 -17 1 -5 3 -13 4 -19 1 -5 3 -15 4 -21 0 -5 5 -8 10 -4 5 3 13 0 17
-6 5 -9 11 -7 20 5 8 11 14 13 19 7 3 -6 2 -11 -2 -11 -5 0 -9 -11 -9 -25 0
-13 2 -22 5 -20 2 3 11 -1 19 -8 13 -10 14 -9 7 3 -14 23 -15 42 -2 37 7 -3
11 -10 9 -16 -1 -6 2 -11 8 -11 15 0 12 11 -8 33 -9 11 -12 18 -6 14 6 -4 19
2 29 13 10 11 21 18 25 15 4 -2 7 1 7 8 1 15 26 80 33 87 3 3 6 13 7 23 1 34
3 36 20 30 11 -4 14 -3 9 5 -4 7 -1 21 7 33 l15 21 7 -21 c3 -12 11 -19 16
-15 6 4 6 10 0 18 -14 16 -4 26 17 19 9 -4 13 -2 9 4 -3 5 0 10 8 10 21 0 18
-15 -4 -22 -19 -6 -22 -27 -7 -42 4 -4 7 -3 6 2 -7 34 15 50 23 18 4 -17 5
-17 6 0 0 10 5 16 9 13 4 -2 9 5 9 17 2 17 0 19 -7 7 -5 -8 -10 -10 -10 -5 0
6 4 16 9 23 6 11 10 10 15 -4 3 -9 9 -14 13 -11 3 4 13 1 21 -6 9 -6 13 -7 10
-2 -7 12 17 37 26 27 4 -3 4 1 0 11 -6 16 -7 16 -19 1 -11 -16 -12 -16 -18 0
-4 9 -3 14 2 11 5 -3 12 -1 16 5 4 6 11 8 16 5 5 -4 9 -1 9 5 0 7 6 5 15 -4
14 -13 45 -13 45 1 0 3 -6 3 -14 0 -14 -6 -32 21 -21 31 3 3 5 -1 6 -9 0 -8 4
-6 9 6 7 16 9 16 9 4 1 -9 8 -20 17 -23 23 -9 31 -7 15 3 -8 5 -15 16 -17 23
-2 16 52 18 75 4 10 -6 12 -5 7 2 -4 7 -2 12 5 12 7 0 5 8 -7 21 -10 11 -14
20 -9 19 20 -4 36 0 31 8 -3 5 1 9 9 9 18 0 20 -13 2 -20 -7 -4 -6 -6 4 -6 9
-1 22 6 29 14 10 12 10 15 0 15 -8 0 -10 3 -7 6 4 4 13 1 21 -5 21 -17 38 -4
31 22 -6 21 -5 21 8 -1 7 -12 16 -20 19 -17 3 3 15 -6 26 -20 18 -23 21 -24
19 -6 0 11 -5 17 -9 15 -4 -3 -8 -1 -8 5 0 5 4 13 10 16 5 3 10 2 10 -4 0 -5
9 -8 20 -6 12 2 23 -2 27 -10 3 -8 10 -12 17 -8 6 3 8 3 4 -2 -11 -11 12 -36
25 -28 6 3 7 1 3 -6 -4 -6 -11 -9 -16 -6 -5 3 -11 1 -15 -5 -3 -5 -1 -10 6
-10 6 0 0 -11 -15 -25 -15 -14 -24 -25 -20 -25 4 0 -1 -7 -12 -16 -10 -8 -14
-13 -9 -10 13 6 18 -31 5 -39 -4 -3 -6 -15 -4 -28 4 -21 4 -20 -6 2 -8 18 -7
26 2 32 7 4 10 11 6 14 -4 4 -15 -6 -24 -21 -14 -20 -15 -29 -6 -32 6 -2 12
-8 12 -13 0 -6 -4 -8 -9 -5 -10 6 -8 -41 3 -66 5 -10 12 -15 17 -12 5 3 6 -2
2 -11 -5 -13 -8 -14 -15 -3 -5 8 -6 2 -2 -17 9 -41 15 -49 25 -34 4 7 10 11
14 8 3 -3 -5 -14 -17 -25 -12 -10 -18 -13 -13 -5 5 10 4 12 -4 7 -6 -4 -9 -12
-6 -17 4 -5 0 -9 -7 -9 -7 -1 -2 -7 12 -14 14 -8 29 -12 34 -9 5 4 6 1 2 -6
-5 -7 -14 -10 -21 -7 -7 2 -16 -1 -18 -8 -6 -14 20 -15 43 -1 12 7 13 6 3 -7
-7 -8 -9 -19 -5 -24 4 -4 -1 -3 -10 4 -14 12 -16 10 -11 -8 3 -12 11 -19 18
-16 7 2 24 -7 38 -20 28 -26 43 -31 31 -11 -6 9 -5 9 7 0 12 -10 18 -10 29 0
10 10 11 9 5 -2 -5 -9 -3 -12 6 -9 8 3 13 10 12 15 -1 5 12 7 29 5 20 -3 29
-1 24 6 -3 6 -1 12 5 14 7 2 11 27 10 63 -2 104 -2 119 2 146 2 14 7 31 12 39
6 9 4 11 -4 5 -10 -6 -11 -3 -2 13 7 14 8 23 1 27 -7 4 -6 13 1 27 8 14 18 19
35 15 19 -3 22 -2 13 9 -16 20 -2 36 21 24 25 -13 40 -12 17 1 -9 6 -15 15
-11 21 4 6 10 5 15 -3 6 -10 9 -8 9 8 0 26 15 38 26 22 4 -7 3 -9 -2 -6 -5 3
-10 -3 -10 -14 0 -10 4 -15 9 -10 13 13 16 45 5 52 -5 3 -2 9 7 12 9 4 13 3
10 -3 -3 -6 -2 -10 4 -10 6 0 8 -8 5 -17 -5 -16 -4 -16 5 -2 6 9 8 26 6 39
l-4 23 22 -22 c28 -25 45 -28 26 -4 -12 16 -12 17 2 6 9 -7 20 -9 24 -5 5 4 6
0 3 -9 -4 -9 -2 -22 3 -30 7 -11 9 -11 9 -1 0 7 5 10 11 6 7 -4 7 1 -1 16 -10
18 -9 25 2 37 13 12 15 12 15 -1 0 -8 -4 -13 -9 -10 -15 10 -8 -14 9 -27 10
-8 14 -9 10 -2 -4 6 -3 14 3 18 5 3 10 1 10 -5 0 -6 4 -9 9 -5 5 3 13 0 17 -6
4 -8 3 -9 -4 -5 -7 4 -12 2 -12 -3 0 -18 17 -12 34 12 l17 22 -11 -22 c-8 -17
-8 -23 0 -23 6 0 8 -5 4 -11 -4 -7 1 -7 16 1 15 8 20 8 16 1 -4 -6 -3 -11 2
-11 5 0 9 -16 10 -35 1 -19 -2 -35 -7 -35 -4 0 -7 12 -7 28 1 15 -3 28 -8 30
-13 3 -17 -26 -5 -34 5 -3 7 -10 4 -15 -4 -5 1 -12 9 -15 9 -3 16 -10 16 -14
0 -12 -25 -6 -46 10 -18 14 -18 14 -3 -5 9 -11 15 -31 14 -45 -2 -23 17 -54
27 -45 3 3 5 -1 5 -9 0 -12 -4 -12 -23 0 -17 12 -24 12 -30 3 -4 -7 -3 -9 4
-5 6 3 13 2 17 -3 3 -5 -3 -14 -12 -20 -10 -6 -13 -11 -8 -11 6 0 16 5 23 12
7 7 12 8 12 2 0 -6 -5 -15 -12 -22 -9 -9 -9 -12 -1 -12 7 0 15 5 18 10 3 6 12
10 18 9 9 0 9 -2 0 -5 -7 -3 -9 -13 -6 -22 4 -15 3 -15 -6 -2 -9 12 -10 7 -8
-23 4 -30 2 -35 -9 -26 -7 6 -19 9 -26 6 -8 -3 -6 -6 5 -6 10 -1 16 -5 13 -9
-3 -5 0 -9 7 -10 32 -3 51 -10 55 -20 2 -7 8 -10 12 -7 5 3 12 0 16 -6 4 -8 3
-9 -4 -5 -24 15 -11 -13 15 -32 24 -17 25 -22 14 -36 -12 -14 -12 -16 3 -10 9
3 16 12 16 20 0 9 8 12 23 10 14 -2 28 4 40 18 12 14 15 16 11 4 -7 -19 19
-16 50 7 18 14 41 105 26 105 -4 0 -7 7 -7 15 0 8 4 15 8 15 4 0 7 14 7 31 -1
17 3 34 8 37 5 4 10 21 11 37 2 37 8 66 26 130 9 31 11 54 5 62 -6 7 -5 14 2
18 7 4 9 17 6 29 -5 21 -5 21 14 -1 15 -19 19 -20 24 -7 4 10 2 13 -7 9 -6 -4
-4 0 5 8 14 11 15 16 5 26 -7 7 -7 11 -2 9 12 -4 56 38 48 46 -3 3 7 3 22 0
19 -3 24 -1 19 7 -5 8 -3 9 6 4 9 -6 12 -4 8 7 -4 8 -1 15 6 15 6 0 12 -8 12
-18 0 -10 -4 -17 -9 -16 -5 1 -12 -5 -14 -13 -4 -12 -3 -12 5 -2 5 8 13 13 18
13 5 -1 9 3 9 9 0 5 9 16 20 24 14 11 16 15 6 16 -8 0 -12 2 -9 5 3 3 12 3 21
-1 15 -5 15 -8 -1 -23 -10 -9 -13 -13 -7 -10 5 4 21 10 35 14 23 7 24 7 10
-11 -14 -18 -14 -18 3 -5 16 13 22 8 18 -13 -1 -5 6 -3 15 5 19 16 24 16 35
-2 4 -7 15 -14 23 -15 9 -1 14 2 10 7 -3 5 0 9 5 9 6 0 11 -6 11 -12 0 -9 4
-8 10 2 8 12 10 12 10 1 0 -8 3 -11 7 -8 3 4 11 -1 18 -10 9 -13 14 -13 20 -3
5 9 4 11 -3 6 -7 -4 -12 -3 -12 2 0 17 13 22 28 9 13 -9 14 -9 8 1 -4 7 -2 12
4 12 6 0 8 5 4 12 -4 6 -3 8 4 5 5 -4 9 -15 7 -25 -1 -9 0 -11 2 -4 3 7 9 10
14 7 5 -3 6 1 2 10 -5 15 -3 15 15 4 16 -10 18 -16 9 -22 -9 -6 -8 -7 3 -4 8
2 16 9 16 15 1 7 2 15 3 19 0 4 8 -2 17 -13 12 -15 15 -15 10 -2 -2 9 2 19 10
22 8 3 13 2 10 -2 -2 -4 0 -14 6 -22 8 -12 9 -12 4 3 -5 16 8 22 41 18 8 -1
10 5 7 13 -4 11 -11 13 -23 7 -11 -6 -23 -6 -32 1 -11 8 -11 9 4 4 9 -3 17 -1
17 3 0 13 25 8 45 -9 22 -18 45 -22 42 -7 -1 7 5 11 13 9 12 -3 13 -1 2 10 -8
8 -15 9 -20 3 -11 -15 -30 -16 -35 -1 -4 10 0 12 14 9 11 -3 19 0 19 6 0 7 4
10 9 7 5 -4 11 -3 14 1 2 5 2 2 1 -4 -2 -7 4 -13 12 -13 9 0 12 -5 8 -12 -6
-10 -5 -10 8 -1 15 13 28 8 28 -9 0 -5 -5 -6 -12 -2 -7 4 -8 3 -4 -5 10 -15
29 -3 22 15 -3 8 1 14 11 14 9 0 22 8 29 18 12 16 12 16 11 -3 -2 -15 4 -20
21 -19 25 2 30 -11 6 -20 -8 -3 -13 -2 -10 2 2 4 -9 8 -26 9 -18 0 -25 -2 -18
-7 9 -5 9 -9 1 -14 -6 -4 -11 -12 -11 -19 0 -6 7 -1 16 11 8 12 20 19 26 16 6
-4 5 -10 -3 -15 -10 -6 -10 -9 -2 -9 6 0 14 4 17 9 8 12 46 2 46 -13 0 -6 4
-5 9 3 7 11 10 9 16 -8 3 -12 11 -18 17 -15 7 5 8 2 3 -6 -6 -10 -11 -9 -22 5
-7 11 -13 14 -13 9 0 -6 6 -16 13 -23 10 -11 9 -13 -6 -8 -11 4 -16 3 -12 -4
4 -5 16 -7 27 -3 15 5 19 3 13 -7 -5 -8 -5 -11 -1 -7 5 4 19 3 32 -2 13 -5 23
-6 23 -2 -3 20 3 23 19 11 15 -13 16 -12 3 3 -7 10 -16 16 -20 14 -4 -3 -7 7
-8 22 0 15 1 19 4 10 2 -10 9 -18 14 -18 6 0 8 4 4 9 -3 6 3 8 14 6 23 -4 81
55 80 82 0 10 -8 30 -17 44 -78 120 -93 136 -177 178 -33 17 -55 30 -48 31 6
0 19 7 28 16 13 14 19 14 28 4 9 -10 9 -11 0 -6 -9 5 -11 2 -6 -10 4 -11 8
-13 11 -6 2 7 8 10 13 6 5 -3 8 0 7 7 -2 6 3 14 11 17 8 3 11 0 7 -7 -5 -7 -1
-9 10 -4 15 5 15 7 0 15 -25 14 -20 31 5 17 13 -6 19 -7 15 -1 -3 6 -3 12 1
15 5 2 2 2 -4 1 -7 -2 -13 0 -13 4 0 11 57 62 68 62 21 0 7 94 -20 136 -24 38
-25 43 -12 63 13 18 13 20 -1 15 -11 -5 -14 -2 -9 10 3 9 10 13 15 10 5 -3 6
2 3 10 -3 9 -1 16 5 16 7 0 9 12 5 33 -3 17 -6 53 -8 80 -2 41 -8 53 -46 92
-24 25 -50 45 -56 45 -13 0 -27 31 -29 60 0 8 6 37 13 63 21 78 17 81 -68 38
-41 -21 -81 -36 -89 -33 -8 3 -11 0 -8 -6 4 -5 -3 -12 -15 -15 -12 -4 -25 -2
-29 4 -3 6 -9 10 -13 10 -20 -3 -26 1 -26 14 0 21 -10 19 -50 -9 -19 -12 -52
-29 -72 -37 -21 -7 -38 -17 -38 -22 0 -5 -6 -4 -13 2 -11 8 -23 3 -53 -23 -32
-27 -46 -33 -77 -31 -22 2 -35 -1 -31 -6 9 -15 -49 -66 -74 -64 -11 1 -19 -2
-16 -7 8 -13 -31 -9 -45 5 -7 6 -12 8 -11 2 6 -28 0 -37 -14 -26 -12 10 -17 8
-26 -9 -7 -13 -18 -19 -26 -16 -11 4 -12 2 -4 -13 8 -16 7 -18 -10 -14 -18 5
-19 3 -10 -21 6 -18 6 -25 0 -21 -6 3 -10 1 -10 -6 0 -10 -3 -10 -12 -1 -16
16 -68 15 -68 0 0 -10 -3 -9 -9 1 -6 9 -10 10 -12 2 -3 -8 -16 -5 -42 8 -20
10 -37 15 -37 11 0 -4 -13 -6 -30 -4 -21 3 -28 0 -24 -10 5 -13 -30 -29 -40
-18 -9 8 -66 10 -61 2 3 -5 2 -15 -1 -24 -7 -18 -44 -22 -44 -5 0 8 -4 9 -13
0 -8 -6 -16 -10 -18 -8 -2 1 3 -4 11 -12 13 -11 11 -12 -15 -8 -16 3 -43 9
-59 13 -18 4 -31 2 -36 -6 -6 -10 -15 -10 -40 -1 -33 11 -55 7 -45 -10 4 -5 2
-9 -4 -9 -5 0 -11 4 -13 10 -1 5 -19 12 -38 16 -28 4 -32 3 -20 -6 13 -10 12
-11 -6 -7 -12 2 -28 1 -35 -4 -14 -9 -42 8 -34 21 3 4 -4 10 -15 13 -11 3 -22
2 -24 -2 -4 -6 -47 -12 -103 -15 -13 -1 -23 -4 -23 -7 0 -6 -89 -3 -133 5 -57
10 -154 76 -233 157 -43 45 -97 100 -119 123 -22 22 -55 52 -73 66 -74 56 -98
77 -129 110 -18 19 -36 43 -39 53 -3 9 -9 17 -13 17 -4 0 -18 19 -30 43 -19
37 -84 118 -93 116 -2 0 -12 -9 -22 -20z m42 -154 c-3 -3 -9 2 -12 12 -6 14
-5 15 5 6 7 -7 10 -15 7 -18z m12 -45 c-6 -11 -13 -20 -16 -20 -2 0 0 9 6 20
6 11 13 20 16 20 2 0 0 -9 -6 -20z m22 -17 c-6 -2 -9 -10 -6 -15 4 -7 2 -8 -5
-4 -13 9 -5 26 12 25 9 0 8 -2 -1 -6z m72 -151 c3 -5 -1 -9 -9 -9 -8 0 -12 4
-9 9 3 4 7 8 9 8 2 0 6 -4 9 -8z m-14 -37 c0 -8 6 -15 13 -15 8 0 7 -4 -3 -10
-13 -8 -12 -10 3 -10 9 0 17 -5 17 -10 0 -7 -7 -7 -21 0 -11 7 -18 14 -15 17
3 3 1 14 -5 24 -6 13 -6 19 1 19 5 0 10 -7 10 -15z m63 -52 c-3 -7 -6 -13 -8
-13 -2 0 -5 6 -8 13 -3 8 1 14 8 14 7 0 11 -6 8 -14z m37 -77 c0 -9 7 -13 20
-11 11 2 20 0 20 -6 0 -5 -5 -9 -11 -9 -5 0 -7 -6 -3 -12 4 -7 -5 -2 -19 11
-28 25 -34 41 -17 41 6 0 10 -6 10 -14z m80 -56 c0 -5 -2 -10 -4 -10 -3 0 -8
5 -11 10 -3 6 -1 10 4 10 6 0 11 -4 11 -10z m52 -77 c-7 -13 -6 -24 4 -38 9
-12 14 -14 14 -5 0 7 2 11 5 8 3 -3 3 -13 -1 -22 -6 -15 -9 -13 -24 11 -13 21
-15 33 -7 51 6 12 12 20 14 18 3 -2 0 -13 -5 -23z m82 -109 c3 -8 2 -12 -4 -9
-6 3 -10 10 -10 16 0 14 7 11 14 -7z m61 -141 c-2 -10 -4 -19 -4 -21 -1 -2 -6
0 -11 3 -8 5 -7 11 1 21 15 18 18 18 14 -3z m2155 -118 c0 -12 -19 -12 -23 0
-4 9 -1 12 9 8 7 -3 14 -7 14 -8z m-80 -19 c-7 -7 -13 -7 -20 0 -6 6 -3 10 10
10 13 0 16 -4 10 -10z m-2210 -196 c0 -5 -2 -10 -4 -10 -3 0 -8 5 -11 10 -3 6
-1 10 4 10 6 0 11 -4 11 -10z m2100 -54 c0 -3 -4 -8 -10 -11 -5 -3 -10 -1 -10
4 0 6 5 11 10 11 6 0 10 -2 10 -4z m46 -8 c4 -6 3 -8 -4 -4 -5 3 -12 1 -14 -6
-2 -6 -12 -12 -21 -14 -9 -1 -15 2 -11 7 3 5 9 7 14 4 4 -3 10 2 14 10 7 18
12 19 22 3z m-546 -38 c0 -5 -2 -10 -4 -10 -3 0 -8 5 -11 10 -3 6 -1 10 4 10
6 0 11 -4 11 -10z m38 -2 c-2 -8 9 -13 29 -12 18 0 30 -3 27 -8 -3 -4 0 -8 7
-8 8 0 8 -4 -1 -15 -11 -13 -15 -13 -21 -3 -5 7 -16 13 -26 13 -27 0 -43 14
-36 30 6 18 24 20 21 3z m112 -18 c-7 -14 -7 -20 0 -20 5 0 10 6 11 13 0 9 2
9 6 -1 3 -9 9 -10 17 -3 9 8 13 7 13 -4 0 -8 -4 -12 -8 -9 -4 2 -10 0 -14 -6
-4 -7 -12 -7 -26 0 -10 6 -19 8 -19 4 0 -4 -3 -5 -6 -2 -3 4 3 16 13 27 22 26
27 27 13 1z m130 -1 c0 -5 -4 -9 -8 -9 -5 0 -9 7 -9 15 0 8 4 12 9 9 4 -3 8
-9 8 -15z m429 -31 c-1 -1 3 -14 10 -26 11 -21 11 -23 -6 -20 -10 2 -16 11
-14 19 2 8 4 20 4 27 0 6 2 10 5 8 2 -2 3 -6 1 -8z m-1929 -48 c0 -5 -5 -10
-11 -10 -5 0 -7 5 -4 10 3 6 8 10 11 10 2 0 4 -4 4 -10z m114 -45 c-4 -8 -8
-15 -10 -15 -2 0 -4 7 -4 15 0 8 4 15 10 15 5 0 7 -7 4 -15z m464 -40 c-3 -3
-9 2 -12 12 -6 14 -5 15 5 6 7 -7 10 -15 7 -18z m62 -29 c0 -3 -4 -8 -10 -11
-5 -3 -10 -1 -10 4 0 6 5 11 10 11 6 0 10 -2 10 -4z m-1001 -59 c8 -10 7 -14
-2 -14 -8 0 -14 6 -14 14 0 7 1 13 2 13 2 0 8 -6 14 -13z m-319 -25 c0 -13
-12 -22 -22 -16 -10 6 -1 24 13 24 5 0 9 -4 9 -8z m1338 -87 c0 -25 -8 -31
-21 -18 -4 3 -2 12 4 20 9 10 8 13 0 13 -7 0 -9 5 -6 10 10 16 23 3 23 -25z
m-623 -2 c-1 -10 3 -25 9 -33 9 -13 9 -13 -5 -3 -9 7 -20 9 -25 5 -4 -4 -2 1
5 11 11 14 11 17 0 17 -11 0 -11 2 1 10 19 13 19 13 15 -7z m-774 -50 c0 -5 2
-15 4 -24 1 -9 -3 -16 -11 -16 -9 0 -11 4 -4 12 6 7 5 16 -2 23 -9 9 -9 12 0
12 7 0 12 -3 13 -7z m32 -78 c-3 -9 -8 -14 -10 -11 -3 3 -2 9 2 15 9 16 15 13
8 -4z m1374 -37 c-3 -7 -5 -2 -5 12 0 14 2 19 5 13 2 -7 2 -19 0 -25z m-612 3
c-3 -6 -14 -10 -23 -10 -15 1 -15 2 1 6 9 2 17 9 17 15 0 6 3 9 6 5 3 -3 3
-10 -1 -16z"/>
<path d="M50 2440 c0 -5 5 -10 11 -10 5 0 7 5 4 10 -3 6 -8 10 -11 10 -2 0 -4
-4 -4 -10z"/>
<path d="M35 2410 c3 -5 8 -10 11 -10 2 0 4 5 4 10 0 6 -5 10 -11 10 -5 0 -7
-4 -4 -10z"/>
<path d="M64 2301 c0 -17 4 -31 9 -31 4 0 5 -5 1 -12 -4 -7 -3 -8 5 -4 6 4 14
0 17 -8 3 -9 11 -16 17 -16 6 0 1 10 -11 23 -12 13 -19 27 -15 30 3 4 1 7 -6
7 -7 0 -10 4 -7 8 2 4 1 14 -4 21 -5 9 -7 2 -6 -18z"/>
<path d="M35 2300 c3 -5 8 -10 11 -10 2 0 4 5 4 10 0 6 -5 10 -11 10 -5 0 -7
-4 -4 -10z"/>
<path d="M60 2206 c0 -2 8 -10 18 -17 15 -13 16 -12 3 4 -13 16 -21 21 -21 13z"/>
<path d="M106 2162 c-3 -5 1 -9 9 -9 8 0 12 4 9 9 -3 4 -7 8 -9 8 -2 0 -6 -4
-9 -8z"/>
<path d="M136 2126 c2 -6 13 -12 24 -12 23 0 17 12 -9 19 -12 3 -18 0 -15 -7z"/>
<path d="M150 2096 c0 -2 7 -9 15 -16 13 -11 14 -10 9 4 -5 14 -24 23 -24 12z"/>
<path d="M2175 2090 c-3 -5 -1 -10 4 -10 6 0 11 5 11 10 0 6 -2 10 -4 10 -3 0
-8 -4 -11 -10z"/>
<path d="M470 1719 c0 -5 5 -7 10 -4 6 3 10 8 10 11 0 2 -4 4 -10 4 -5 0 -10
-5 -10 -11z"/>
<path d="M2810 1499 c0 -5 5 -7 10 -4 6 3 10 8 10 11 0 2 -4 4 -10 4 -5 0 -10
-5 -10 -11z"/>
<path d="M2682 1421 c-11 -7 -11 -9 0 -14 9 -3 15 1 15 9 0 8 -1 14 -1 14 -1
0 -7 -4 -14 -9z"/>
<path d="M443 1359 c15 -9 16 -13 5 -27 -10 -12 -10 -14 0 -8 18 11 15 -5 -4
-18 -14 -11 -14 -13 3 -26 10 -8 15 -11 11 -6 -4 5 -3 17 3 28 14 26 20 60 9
53 -5 -3 -11 -1 -15 5 -3 5 -12 10 -18 10 -7 0 -4 -5 6 -11z"/>
<path d="M2650 1104 c0 -7 27 -34 34 -34 13 0 5 16 -14 28 -11 7 -20 10 -20 6z"/>
<path d="M1909 1078 c-7 -28 -4 -34 15 -35 11 -1 15 1 8 4 -6 3 -10 9 -7 13 3
5 1 11 -5 15 -5 3 -10 5 -11 3z"/>
<path d="M2816 1072 c-3 -5 1 -15 8 -21 11 -10 14 -9 12 3 -3 21 -13 29 -20
18z"/>
<path d="M2395 1060 c3 -5 8 -10 11 -10 2 0 4 5 4 10 0 6 -5 10 -11 10 -5 0
-7 -4 -4 -10z"/>
<path d="M2850 1059 c0 -5 5 -7 10 -4 6 3 10 8 10 11 0 2 -4 4 -10 4 -5 0 -10
-5 -10 -11z"/>
<path d="M786 998 c3 -5 10 -6 15 -3 13 9 11 12 -6 12 -8 0 -12 -4 -9 -9z"/>
<path d="M863 993 c1 -15 5 -19 13 -13 6 6 14 7 17 3 4 -3 -1 -12 -11 -20 -16
-12 -16 -13 0 -7 14 5 16 1 12 -22 -3 -16 -2 -26 1 -22 4 3 7 12 9 20 1 7 4
18 8 23 3 6 -2 21 -13 34 -11 14 -19 18 -19 10 0 -11 -2 -11 -10 1 -7 12 -9
10 -7 -7z"/>
<path d="M735 989 c-4 -6 -5 -12 -2 -15 2 -3 7 2 10 11 7 17 1 20 -8 4z"/>
<path d="M755 979 c-4 -6 -4 -13 -1 -16 3 -4 6 -1 6 6 0 8 6 11 16 7 8 -3 12
-2 9 4 -8 13 -22 13 -30 -1z"/>
<path d="M810 980 c0 -5 5 -10 11 -10 5 0 7 5 4 10 -3 6 -8 10 -11 10 -2 0 -4
-4 -4 -10z"/>
<path d="M682 966 c7 -8 15 -12 17 -10 2 2 12 -2 21 -8 9 -7 5 -3 -8 10 -25
24 -51 31 -30 8z"/>
<path d="M156 954 c-8 -20 0 -32 14 -18 5 5 5 15 1 22 -6 11 -10 10 -15 -4z"/>
<path d="M1805 960 c-3 -5 -1 -10 4 -10 6 0 11 5 11 10 0 6 -2 10 -4 10 -3 0
-8 -4 -11 -10z"/>
<path d="M1270 930 c6 -11 13 -20 16 -20 2 0 0 9 -6 20 -6 11 -13 20 -16 20
-2 0 0 -9 6 -20z"/>
<path d="M595 928 c-5 -7 -5 -10 0 -6 4 4 13 4 19 -2 7 -5 17 -5 26 2 13 8 12
9 -1 5 -9 -3 -21 -1 -27 5 -6 6 -12 5 -17 -4z"/>
<path d="M150 911 c0 -7 -5 -9 -12 -5 -7 4 -10 4 -6 -1 4 -4 3 -15 -4 -24 -7
-9 -1 -6 12 6 13 12 21 26 17 29 -4 4 -7 2 -7 -5z"/>
<path d="M1375 900 c3 -5 8 -10 11 -10 2 0 4 5 4 10 0 6 -5 10 -11 10 -5 0 -7
-4 -4 -10z"/>
<path d="M1415 889 c-4 -6 -5 -12 -2 -15 2 -3 7 2 10 11 7 17 1 20 -8 4z"/>
<path d="M834 861 c3 -5 -1 -14 -9 -21 -8 -7 -15 -17 -15 -23 0 -5 9 2 20 16
23 28 25 37 9 37 -5 0 -8 -4 -5 -9z"/>
<path d="M450 819 c0 -5 5 -7 10 -4 6 3 10 8 10 11 0 2 -4 4 -10 4 -5 0 -10
-5 -10 -11z"/>
<path d="M1099 803 c-7 -10 -9 -15 -5 -11 5 4 15 0 23 -10 12 -15 13 -14 2 7
-10 21 -9 23 5 18 10 -4 15 -3 11 3 -9 15 -21 12 -36 -7z"/>
<path d="M326 802 c-2 -4 -1 -14 4 -22 7 -11 9 -9 7 8 -1 24 -3 26 -11 14z"/>
<path d="M290 755 c0 -7 30 -13 34 -7 3 4 -4 9 -15 9 -10 1 -19 0 -19 -2z"/>
<path d="M790 756 c0 -2 8 -10 18 -17 15 -13 16 -12 3 4 -13 16 -21 21 -21 13z"/>
<path d="M820 699 c0 -5 5 -7 10 -4 6 3 10 8 10 11 0 2 -4 4 -10 4 -5 0 -10
-5 -10 -11z"/>
<path d="M45 640 c-4 -6 -3 -10 2 -9 19 3 23 -2 13 -21 -13 -25 -9 -26 11 -2
15 17 15 20 -2 30 -12 8 -20 8 -24 2z"/>
<path d="M830 635 c0 -8 4 -15 10 -15 5 0 7 7 4 15 -4 8 -8 15 -10 15 -2 0 -4
-7 -4 -15z"/>
<path d="M1435 630 c-3 -6 1 -7 9 -4 18 7 21 14 7 14 -6 0 -13 -4 -16 -10z"/>
<path d="M76 595 c-3 -8 -1 -15 4 -15 6 0 10 7 10 15 0 8 -2 15 -4 15 -2 0 -6
-7 -10 -15z"/>
<path d="M230 599 c0 -5 5 -7 10 -4 6 3 10 8 10 11 0 2 -4 4 -10 4 -5 0 -10
-5 -10 -11z"/>
<path d="M100 575 c-7 -9 -10 -18 -6 -22 3 -3 6 -1 6 5 0 7 8 12 18 12 14 0
15 -2 2 -10 -13 -8 -13 -10 1 -10 9 0 20 8 23 17 4 10 4 14 0 10 -4 -4 -13 -2
-19 3 -9 7 -16 6 -25 -5z"/>
<path d="M56 562 c-3 -5 1 -9 9 -9 8 0 12 4 9 9 -3 4 -7 8 -9 8 -2 0 -6 -4 -9
-8z"/>
<path d="M1487 543 c4 -9 0 -11 -13 -7 -11 3 -6 -3 10 -14 17 -12 33 -19 37
-16 4 2 14 -5 22 -16 7 -11 17 -17 20 -13 8 7 -34 39 -46 35 -4 -1 -7 3 -6 10
3 25 -1 35 -15 35 -8 0 -12 -6 -9 -14z"/>
<path d="M810 539 c0 -5 5 -7 10 -4 6 3 10 8 10 11 0 2 -4 4 -10 4 -5 0 -10
-5 -10 -11z"/>
<path d="M830 478 c0 -6 6 -8 14 -5 8 3 17 2 20 -4 2 -5 3 -4 2 2 -3 15 -36
21 -36 7z"/>
<path d="M887 476 c-4 -9 -1 -18 5 -22 7 -4 8 -3 4 4 -4 7 -3 12 3 12 5 0 11
-6 14 -12 2 -7 7 -10 11 -7 3 3 -2 13 -13 23 -16 15 -19 15 -24 2z"/>
<path d="M1510 486 c0 -2 7 -7 16 -10 8 -3 12 -2 9 4 -6 10 -25 14 -25 6z"/>
<path d="M1644 479 c-2 -4 -14 -6 -25 -4 -17 3 -19 2 -9 -10 9 -11 16 -12 30
-3 14 9 22 9 34 -1 11 -9 16 -10 16 -2 0 6 -5 11 -11 11 -5 0 -8 4 -5 8 3 5
-2 9 -10 9 -8 0 -17 -4 -20 -8z"/>
<path d="M1690 486 c0 -2 7 -7 16 -10 8 -3 12 -2 9 4 -6 10 -25 14 -25 6z"/>
</g>
</svg>
